<mxfile host="app.diagrams.net" agent="Mozilla/5.0 (Windows NT 10.0; Win64; x64) AppleWebKit/537.36 (KHTML, like Gecko) Chrome/130.0.0.0 Safari/537.36" version="24.8.4">
  <diagram name="페이지-1" id="hXn3ez5PrBHBoCTHGb-N">
    <mxGraphModel dx="1615" dy="857" grid="1" gridSize="10" guides="1" tooltips="1" connect="1" arrows="1" fold="1" page="1" pageScale="1" pageWidth="827" pageHeight="1169" math="0" shadow="0">
      <root>
        <mxCell id="0" />
        <mxCell id="1" parent="0" />
        <mxCell id="JOlXU6-3wr15zM9Gxf06-84" value="" style="rounded=1;whiteSpace=wrap;html=1;" parent="1" vertex="1">
          <mxGeometry x="250" y="340" width="1100" height="575" as="geometry" />
        </mxCell>
        <mxCell id="h4gwQPKFGp30rWanmRoc-1" value="대학생" style="shape=umlActor;verticalLabelPosition=bottom;verticalAlign=top;html=1;outlineConnect=0;" parent="1" vertex="1">
          <mxGeometry x="180" y="390" width="30" height="60" as="geometry" />
        </mxCell>
        <mxCell id="JOlXU6-3wr15zM9Gxf06-2" value="&amp;nbsp;로그인" style="ellipse;whiteSpace=wrap;html=1;" parent="1" vertex="1">
          <mxGeometry x="340" y="390" width="140" height="70" as="geometry" />
        </mxCell>
        <mxCell id="JOlXU6-3wr15zM9Gxf06-5" value="" style="endArrow=classic;html=1;rounded=0;" parent="1" target="JOlXU6-3wr15zM9Gxf06-2" edge="1">
          <mxGeometry width="50" height="50" relative="1" as="geometry">
            <mxPoint x="220" y="425" as="sourcePoint" />
            <mxPoint x="230" y="350" as="targetPoint" />
          </mxGeometry>
        </mxCell>
        <mxCell id="JOlXU6-3wr15zM9Gxf06-6" value="학사 정보 시스템&lt;div&gt;&lt;br&gt;&lt;/div&gt;" style="shape=umlActor;verticalLabelPosition=bottom;verticalAlign=top;html=1;outlineConnect=0;" parent="1" vertex="1">
          <mxGeometry x="160" y="630" width="30" height="60" as="geometry" />
        </mxCell>
        <mxCell id="JOlXU6-3wr15zM9Gxf06-10" value="To Do 등록하기" style="ellipse;whiteSpace=wrap;html=1;" parent="1" vertex="1">
          <mxGeometry x="670" y="420" width="140" height="70" as="geometry" />
        </mxCell>
        <mxCell id="JOlXU6-3wr15zM9Gxf06-11" value="To do List&amp;nbsp; 조회하기" style="ellipse;whiteSpace=wrap;html=1;" parent="1" vertex="1">
          <mxGeometry x="670" y="655" width="140" height="70" as="geometry" />
        </mxCell>
        <mxCell id="JOlXU6-3wr15zM9Gxf06-13" value="" style="endArrow=classic;html=1;rounded=0;entryX=0;entryY=0.5;entryDx=0;entryDy=0;exitX=1;exitY=1;exitDx=0;exitDy=0;" parent="1" source="JOlXU6-3wr15zM9Gxf06-2" target="JOlXU6-3wr15zM9Gxf06-10" edge="1">
          <mxGeometry width="50" height="50" relative="1" as="geometry">
            <mxPoint x="460" y="460" as="sourcePoint" />
            <mxPoint x="610" y="507" as="targetPoint" />
          </mxGeometry>
        </mxCell>
        <mxCell id="JOlXU6-3wr15zM9Gxf06-34" value="Todo 항목명 등록하기" style="ellipse;whiteSpace=wrap;html=1;" parent="1" vertex="1">
          <mxGeometry x="1070" y="435" width="140" height="40" as="geometry" />
        </mxCell>
        <mxCell id="JOlXU6-3wr15zM9Gxf06-35" style="edgeStyle=orthogonalEdgeStyle;rounded=0;orthogonalLoop=1;jettySize=auto;html=1;" parent="1" source="JOlXU6-3wr15zM9Gxf06-36" target="JOlXU6-3wr15zM9Gxf06-10" edge="1">
          <mxGeometry relative="1" as="geometry">
            <mxPoint x="980" y="520" as="targetPoint" />
          </mxGeometry>
        </mxCell>
        <mxCell id="JOlXU6-3wr15zM9Gxf06-36" value="마감기한 등록하기" style="ellipse;whiteSpace=wrap;html=1;" parent="1" vertex="1">
          <mxGeometry x="1070" y="475" width="140" height="40" as="geometry" />
        </mxCell>
        <mxCell id="JOlXU6-3wr15zM9Gxf06-37" style="edgeStyle=orthogonalEdgeStyle;rounded=0;orthogonalLoop=1;jettySize=auto;html=1;entryX=1;entryY=0.5;entryDx=0;entryDy=0;" parent="1" source="JOlXU6-3wr15zM9Gxf06-38" target="JOlXU6-3wr15zM9Gxf06-10" edge="1">
          <mxGeometry relative="1" as="geometry">
            <mxPoint x="980" y="520" as="targetPoint" />
          </mxGeometry>
        </mxCell>
        <mxCell id="JOlXU6-3wr15zM9Gxf06-38" value="실제 마감일 등록하기" style="ellipse;whiteSpace=wrap;html=1;" parent="1" vertex="1">
          <mxGeometry x="1070" y="515" width="140" height="40" as="geometry" />
        </mxCell>
        <mxCell id="JOlXU6-3wr15zM9Gxf06-50" style="edgeStyle=orthogonalEdgeStyle;rounded=0;orthogonalLoop=1;jettySize=auto;html=1;exitX=0;exitY=0.5;exitDx=0;exitDy=0;" parent="1" source="JOlXU6-3wr15zM9Gxf06-39" target="JOlXU6-3wr15zM9Gxf06-10" edge="1">
          <mxGeometry relative="1" as="geometry">
            <mxPoint x="790" y="560" as="targetPoint" />
          </mxGeometry>
        </mxCell>
        <mxCell id="JOlXU6-3wr15zM9Gxf06-39" value="완료여부 등록하기" style="ellipse;whiteSpace=wrap;html=1;" parent="1" vertex="1">
          <mxGeometry x="1070" y="585" width="140" height="30" as="geometry" />
        </mxCell>
        <mxCell id="JOlXU6-3wr15zM9Gxf06-41" style="edgeStyle=orthogonalEdgeStyle;rounded=0;orthogonalLoop=1;jettySize=auto;html=1;" parent="1" source="JOlXU6-3wr15zM9Gxf06-34" target="JOlXU6-3wr15zM9Gxf06-10" edge="1">
          <mxGeometry relative="1" as="geometry">
            <mxPoint x="910" y="485" as="targetPoint" />
            <Array as="points">
              <mxPoint x="810" y="440" />
              <mxPoint x="810" y="440" />
            </Array>
          </mxGeometry>
        </mxCell>
        <mxCell id="JOlXU6-3wr15zM9Gxf06-43" value="" style="endArrow=classic;html=1;rounded=0;" parent="1" target="JOlXU6-3wr15zM9Gxf06-2" edge="1">
          <mxGeometry width="50" height="50" relative="1" as="geometry">
            <mxPoint x="220" y="655" as="sourcePoint" />
            <mxPoint x="360" y="655" as="targetPoint" />
          </mxGeometry>
        </mxCell>
        <mxCell id="JOlXU6-3wr15zM9Gxf06-51" value="중요여부 등록하기" style="ellipse;whiteSpace=wrap;html=1;" parent="1" vertex="1">
          <mxGeometry x="1070" y="555" width="140" height="30" as="geometry" />
        </mxCell>
        <mxCell id="JOlXU6-3wr15zM9Gxf06-52" style="edgeStyle=orthogonalEdgeStyle;rounded=0;orthogonalLoop=1;jettySize=auto;html=1;exitX=0;exitY=0.5;exitDx=0;exitDy=0;" parent="1" source="JOlXU6-3wr15zM9Gxf06-51" target="JOlXU6-3wr15zM9Gxf06-10" edge="1">
          <mxGeometry relative="1" as="geometry">
            <mxPoint x="940" y="460" as="targetPoint" />
          </mxGeometry>
        </mxCell>
        <mxCell id="vs4ZCEnxakECpz3FbIya-3" style="edgeStyle=orthogonalEdgeStyle;rounded=0;orthogonalLoop=1;jettySize=auto;html=1;" edge="1" parent="1" source="JOlXU6-3wr15zM9Gxf06-56" target="JOlXU6-3wr15zM9Gxf06-11">
          <mxGeometry relative="1" as="geometry" />
        </mxCell>
        <mxCell id="JOlXU6-3wr15zM9Gxf06-56" value="중요여부 등록하기" style="ellipse;whiteSpace=wrap;html=1;" parent="1" vertex="1">
          <mxGeometry x="1080" y="660" width="140" height="30" as="geometry" />
        </mxCell>
        <mxCell id="vs4ZCEnxakECpz3FbIya-2" style="edgeStyle=orthogonalEdgeStyle;rounded=0;orthogonalLoop=1;jettySize=auto;html=1;" edge="1" parent="1" source="JOlXU6-3wr15zM9Gxf06-58" target="JOlXU6-3wr15zM9Gxf06-11">
          <mxGeometry relative="1" as="geometry" />
        </mxCell>
        <mxCell id="JOlXU6-3wr15zM9Gxf06-58" value="완료여부 등록하기" style="ellipse;whiteSpace=wrap;html=1;" parent="1" vertex="1">
          <mxGeometry x="1080" y="690" width="140" height="30" as="geometry" />
        </mxCell>
        <mxCell id="JOlXU6-3wr15zM9Gxf06-68" style="edgeStyle=orthogonalEdgeStyle;rounded=0;orthogonalLoop=1;jettySize=auto;html=1;exitX=0.5;exitY=0;exitDx=0;exitDy=0;entryX=0.5;entryY=1;entryDx=0;entryDy=0;" parent="1" source="JOlXU6-3wr15zM9Gxf06-64" target="JOlXU6-3wr15zM9Gxf06-11" edge="1">
          <mxGeometry relative="1" as="geometry" />
        </mxCell>
        <mxCell id="JOlXU6-3wr15zM9Gxf06-64" value="To do&amp;nbsp; 수정하기" style="ellipse;whiteSpace=wrap;html=1;" parent="1" vertex="1">
          <mxGeometry x="600" y="830" width="140" height="50" as="geometry" />
        </mxCell>
        <mxCell id="vs4ZCEnxakECpz3FbIya-5" style="edgeStyle=orthogonalEdgeStyle;rounded=0;orthogonalLoop=1;jettySize=auto;html=1;" edge="1" parent="1" source="JOlXU6-3wr15zM9Gxf06-65" target="JOlXU6-3wr15zM9Gxf06-11">
          <mxGeometry relative="1" as="geometry" />
        </mxCell>
        <mxCell id="JOlXU6-3wr15zM9Gxf06-65" value="To do 추가하기" style="ellipse;whiteSpace=wrap;html=1;" parent="1" vertex="1">
          <mxGeometry x="770" y="830" width="140" height="50" as="geometry" />
        </mxCell>
        <mxCell id="vs4ZCEnxakECpz3FbIya-18" style="edgeStyle=orthogonalEdgeStyle;rounded=0;orthogonalLoop=1;jettySize=auto;html=1;" edge="1" parent="1" source="JOlXU6-3wr15zM9Gxf06-67" target="JOlXU6-3wr15zM9Gxf06-11">
          <mxGeometry relative="1" as="geometry">
            <Array as="points">
              <mxPoint x="1000" y="780" />
              <mxPoint x="740" y="780" />
            </Array>
          </mxGeometry>
        </mxCell>
        <mxCell id="JOlXU6-3wr15zM9Gxf06-67" value="To do&amp;nbsp; 삭제하기" style="ellipse;whiteSpace=wrap;html=1;" parent="1" vertex="1">
          <mxGeometry x="930" y="830" width="140" height="40" as="geometry" />
        </mxCell>
        <mxCell id="JOlXU6-3wr15zM9Gxf06-69" style="edgeStyle=orthogonalEdgeStyle;rounded=0;orthogonalLoop=1;jettySize=auto;html=1;entryX=0.584;entryY=0.971;entryDx=0;entryDy=0;entryPerimeter=0;" parent="1" source="JOlXU6-3wr15zM9Gxf06-65" target="JOlXU6-3wr15zM9Gxf06-11" edge="1">
          <mxGeometry relative="1" as="geometry">
            <Array as="points">
              <mxPoint x="840" y="778" />
              <mxPoint x="740" y="778" />
              <mxPoint x="740" y="723" />
            </Array>
          </mxGeometry>
        </mxCell>
        <mxCell id="JOlXU6-3wr15zM9Gxf06-72" style="edgeStyle=orthogonalEdgeStyle;rounded=0;orthogonalLoop=1;jettySize=auto;html=1;exitX=0.5;exitY=0;exitDx=0;exitDy=0;entryX=0.5;entryY=1;entryDx=0;entryDy=0;" parent="1" source="JOlXU6-3wr15zM9Gxf06-71" target="JOlXU6-3wr15zM9Gxf06-11" edge="1">
          <mxGeometry relative="1" as="geometry" />
        </mxCell>
        <mxCell id="JOlXU6-3wr15zM9Gxf06-71" value="To do&amp;nbsp; 정렬하기" style="ellipse;whiteSpace=wrap;html=1;" parent="1" vertex="1">
          <mxGeometry x="420" y="830" width="140" height="50" as="geometry" />
        </mxCell>
      </root>
    </mxGraphModel>
  </diagram>
</mxfile>
